<svg xmlns="http://www.w3.org/2000/svg" viewBox="0 0 48 48" width="48" height="48"><rect width="48" height="48" rx="12" fill="#ffffff"/><path fill="#181717" d="M24 11c-7.18 0-13 5.82-13 13 0 5.74 3.72 10.61 8.89 12.33.65.12.89-.28.89-.63 0-.31-.01-1.13-.02-2.22-3.62.79-4.38-1.74-4.38-1.74-.59-1.5-1.44-1.9-1.44-1.9-1.18-.81.09-.79.09-.79 1.3.09 1.99 1.34 1.99 1.34 1.16 1.99 3.04 1.41 3.78 1.08.12-.84.45-1.41.82-1.74-2.89-.33-5.93-1.45-5.93-6.43 0-1.42.51-2.58 1.34-3.49-.13-.33-.58-1.65.13-3.44 0 0 1.09-.35 3.58 1.33a12.4 12.4 0 0 1 6.52 0c2.48-1.68 3.57-1.33 3.57-1.33.71 1.79.26 3.11.13 3.44.83.91 1.34 2.07 1.34 3.49 0 4.99-3.05 6.09-5.95 6.42.47.4.88 1.2.88 2.42 0 1.75-.02 3.16-.02 3.59 0 .35.24.76.9.63A13.01 13.01 0 0 0 37 24c0-7.18-5.82-13-13-13z"/></svg>