<svg xmlns="http://www.w3.org/2000/svg" viewBox="0 0 48 48" width="48" height="48"><rect width="48" height="48" rx="12" fill="#ffffff"/><path fill="#4285F4" d="M34.5 24.27c0-.79-.07-1.54-.2-2.27H24v4.51h5.9a5.04 5.04 0 0 1-2.19 3.31v2.77h3.54c2.07-1.91 3.25-4.72 3.25-8.32z"/><path fill="#34A853" d="M24 35c2.95 0 5.43-.98 7.25-2.64l-3.54-2.77c-.98.66-2.23 1.05-3.71 1.05-2.85 0-5.27-1.93-6.13-4.52h-3.66v2.84A11 11 0 0 0 24 35z"/><path fill="#FBBC05" d="M17.87 26.12a6.6 6.6 0 0 1 0-4.23v-2.84h-3.66a11 11 0 0 0 0 9.91z"/><path fill="#EA4335" d="M24 17.58c1.61 0 3.05.55 4.19 1.64l3.14-3.14C29.43 14.2 26.95 13 24 13a11 11 0 0 0-9.79 6.05l3.66 2.84c.86-2.59 3.28-4.31 6.13-4.31z"/></svg>